<svg width="25" height="25" viewBox="0 0 25 25" fill="none" xmlns="http://www.w3.org/2000/svg">
<path d="M24.7718 0.228115C24.8799 0.336446 24.9539 0.474168 24.9845 0.624173C25.015 0.774178 25.0008 0.929855 24.9437 1.07186L15.8515 23.8016C15.7713 24.0017 15.6375 24.1759 15.4648 24.3049C15.2921 24.434 15.0871 24.5128 14.8724 24.5329C14.6577 24.5529 14.4417 24.5133 14.248 24.4185C14.0544 24.3236 13.8907 24.1772 13.7749 23.9953L8.80928 16.1906L1.0046 11.225C0.82228 11.1093 0.675458 10.9456 0.58033 10.7518C0.485202 10.5579 0.445468 10.3416 0.46551 10.1266C0.485552 9.91166 0.564593 9.70641 0.69391 9.53352C0.823227 9.36063 0.997793 9.22682 1.19835 9.14686L23.928 0.0578024C24.07 0.000634027 24.2257 -0.013553 24.3757 0.0170035C24.5257 0.04756 24.6635 0.121513 24.7718 0.229677V0.228115ZM10.3687 15.7344L14.6827 22.5125L22.078 4.02499L10.3687 15.7344ZM20.9733 2.9203L2.48585 10.3156L9.26553 14.6281L20.9749 2.9203H20.9733Z" fill="#00C684"/>
</svg>
